<svg width="16.071533" height="16.071289" viewBox="0 0 16.0715 16.0713" fill="none" xmlns="http://www.w3.org/2000/svg" xmlns:xlink="http://www.w3.org/1999/xlink">
	<desc>
			Created with Pixso.
	</desc>
	<defs/>
	<path id="icon" d="M9.57202 8.03564L15.7786 14.2422C16.1692 14.6328 16.1692 15.2661 15.7786 15.6567L15.6565 15.7788C15.2659 16.1689 14.6328 16.1689 14.2422 15.7788L8.03589 9.57227L1.82935 15.7788C1.43872 16.1689 0.805664 16.1689 0.415039 15.7788L0.292969 15.6567C-0.0976562 15.2661 -0.0976562 14.6328 0.292969 14.2422L6.49951 8.03564L0.292969 1.8291C-0.0976562 1.43896 -0.0976562 0.805664 0.292969 0.415039L0.415039 0.292969C0.805664 -0.0976562 1.43872 -0.0976562 1.82935 0.292969L8.03589 6.49951L14.2422 0.292969C14.6328 -0.0976562 15.2659 -0.0976562 15.6565 0.292969L15.7786 0.415039C16.1692 0.805664 16.1692 1.43896 15.7786 1.8291L9.57202 8.03564Z" clip-rule="evenodd" fill="#FFFFFF" fill-opacity="1.000000" fill-rule="evenodd"/>
</svg>
